<svg height="210" width="400" xmlns="http://www.w3.org/2000/svg">
  <!-- <path d="M150 5 L75 200 L225 200 Z" fill="rgb(255, 255, 0)" stroke="rgb(0, 255, 255)" stroke-width="10" transform="translate(30, 40) rotate(-30) scale(2, 3)"/>
  <path fill="none" stroke="rgb(255,0,0)" stroke-width="5" 
        d="M100,200 C100,100 250,100 250,200C250,300 400,300 400,200" transform="translate(30, 40) rotate(-30) scale(2)"/> -->
  <path d="M0-112L20,124  L    40 129 L 60 126 L 80 120 L 100 111 L 120 104 L 140 101 L 164 106 L 170 103 L 173 80 L 178 60 L 185 39 L 200 30 L 220 30 L 240 40 L 260 61 L 280 69 L 290 68 L 288 77 L 272 85 L 250 85 L 230 85 L 215 88 L 211 95 L 215 110 L 228 120 L 241 130 L 251 149 L 252 164 L 242 181 L 221 189 L 200 191 L 180 193 L 160 192 L 140 190 L 120 190 L 100 188 L 80 182 L 61 179 L 42 171 L 30 159 L 13 140 L 00 112 Z" fill="yellow" stroke="black" transform="rotate(60)"/>

</svg>